<?xml version="1.0" standalone="no"?>
<!DOCTYPE svg PUBLIC "-//W3C//DTD SVG 20010904//EN"
 "http://www.w3.org/TR/2001/REC-SVG-20010904/DTD/svg10.dtd">
<svg version="1.0" xmlns="http://www.w3.org/2000/svg"
 width="400.000000pt" height="400.000000pt" viewBox="0 0 400.000000 400.000000"
 preserveAspectRatio="xMidYMid meet">
<metadata>
Created by potrace 1.11, written by Peter Selinger 2001-2013
</metadata>
<g transform="translate(0.000000,400.000000) scale(0.100000,-0.100000)"
fill="#000000" stroke="none">
<path d="M0 2000 l0 -2000 603 0 603 0 27 54 c16 30 32 83 38 118 6 35 21 94
35 132 22 62 23 71 9 78 -8 5 -22 26 -31 46 -14 32 -14 51 -4 142 29 265 36
290 74 290 22 0 23 3 18 45 -3 34 0 50 13 65 14 16 15 24 6 53 -7 20 -11 88
-11 154 1 65 -2 147 -5 183 l-7 65 36 -70 c38 -75 86 -131 181 -210 33 -27 63
-54 67 -60 5 -6 8 -4 8 4 0 10 10 12 41 8 l41 -5 -6 41 c-11 66 -36 147 -47
147 -5 0 -9 13 -9 28 0 38 36 55 155 77 115 22 202 65 307 153 82 68 188 176
188 191 0 4 13 23 30 41 16 18 30 42 30 52 0 10 3 17 8 17 20 -3 28 4 42 33
l14 33 11 -60 c5 -33 15 -69 22 -80 43 -76 54 -243 28 -450 -18 -140 -17 -138
-63 -235 -57 -123 -142 -310 -177 -390 -125 -286 -178 -399 -211 -447 -21 -32
-22 -32 -39 -13 -12 13 -20 47 -26 104 -5 47 -18 114 -30 148 -18 55 -20 79
-16 183 6 144 17 187 54 204 32 15 25 21 -52 50 -63 24 -174 44 -238 42 -39
-1 -115 -37 -154 -74 -28 -25 -30 -40 -3 -32 14 4 27 -1 41 -17 24 -27 89
-171 89 -197 0 -10 7 -35 15 -56 9 -20 13 -44 10 -54 -3 -10 -6 -42 -6 -72 -1
-38 -15 -90 -46 -174 -50 -132 -69 -191 -82 -248 l-9 -37 648 0 647 0 -4 24
c-3 13 -15 28 -28 34 -45 21 -37 125 13 147 12 5 22 13 22 17 0 15 -55 -18
-88 -52 -22 -23 -35 -31 -39 -22 -2 6 -9 10 -14 7 -12 -8 -22 39 -14 64 3 12
12 21 19 21 12 0 28 25 40 63 3 9 14 17 24 17 10 0 29 12 43 26 l24 26 -22 -6
c-16 -5 -23 -3 -23 6 -1 7 -6 3 -13 -10 -7 -12 -15 -20 -18 -17 -3 3 -22 -10
-42 -29 l-36 -34 6 32 c8 42 58 128 83 144 11 7 20 23 20 36 0 80 36 123 109
133 44 6 103 -20 138 -61 13 -15 33 -26 48 -26 18 0 25 -5 25 -19 0 -15 5 -19
23 -16 28 6 51 -30 62 -92 8 -50 -5 -77 -45 -98 -16 -8 -45 -29 -64 -45 -28
-25 -35 -40 -46 -104 -11 -61 -18 -76 -37 -85 -23 -11 -32 -31 -13 -31 6 0 10
4 10 10 0 5 7 7 15 3 9 -3 13 -8 10 -11 -5 -6 -97 -14 -149 -13 -28 0 -28 0
-11 -19 18 -20 72 -29 60 -10 -3 5 1 10 9 10 8 0 17 -4 20 -9 9 -13 137 -13
153 0 11 10 11 14 1 21 -10 6 -10 10 2 18 15 9 13 11 -12 14 -21 2 -20 26 1
26 12 0 21 -5 21 -11 0 -5 5 -7 10 -4 13 8 13 -8 -1 -22 -8 -8 -7 -17 3 -32
13 -21 16 -21 425 -21 l413 0 0 2000 0 2000 -566 0 c-564 0 -566 0 -583 -21
-24 -30 -81 -34 -130 -9 -22 11 -50 20 -63 21 -13 1 -616 3 -1340 6 l-1318 3
0 -2000z m1695 1206 c224 -61 302 -78 412 -91 72 -8 136 -21 149 -30 27 -17
77 -20 104 -5 17 9 21 5 30 -29 6 -22 10 -43 9 -48 -1 -4 0 -11 1 -15 3 -9 3
-9 14 -58 5 -19 12 -41 16 -50 5 -8 12 -42 18 -75 5 -33 12 -71 16 -85 19 -78
28 -193 15 -184 -5 3 -9 -9 -9 -25 0 -17 5 -31 11 -31 8 0 9 -28 4 -102 -12
-151 -12 -168 -4 -173 13 -9 26 20 27 63 1 50 7 62 31 62 15 0 20 11 26 55 7
60 18 72 87 96 39 13 59 39 32 39 -16 0 -15 21 2 27 17 6 36 -56 31 -105 -19
-181 -31 -217 -110 -327 -75 -103 -126 -100 -128 9 l-1 61 -15 -45 c-8 -25
-17 -63 -19 -85 -3 -22 -9 -44 -14 -50 -4 -5 -11 -32 -15 -58 -5 -31 -14 -51
-26 -58 -14 -7 -18 -16 -13 -34 4 -17 0 -26 -15 -35 -12 -6 -26 -8 -31 -5 -6
3 -10 0 -10 -7 0 -19 -56 -78 -74 -78 -9 0 -16 -9 -16 -21 0 -12 -4 -18 -11
-13 -6 3 -15 0 -20 -7 -8 -12 -11 -12 -19 1 -8 13 -10 13 -10 -2 0 -24 -16
-31 -33 -13 -20 20 -27 19 -27 -2 -1 -14 -4 -12 -15 7 -13 23 -14 23 -16 5 -1
-11 -2 -26 -2 -32 1 -7 -3 -13 -8 -13 -5 0 -9 10 -9 22 0 34 -18 8 -22 -31 -2
-19 -9 -36 -17 -39 -10 -3 -12 4 -9 32 4 35 -4 47 -17 26 -3 -5 -15 -10 -25
-10 -13 0 -18 -5 -14 -15 11 -27 -39 -65 -91 -70 -27 -3 -54 0 -61 6 -7 6 -17
8 -23 5 -5 -3 -11 1 -15 9 -8 21 -32 19 -53 -5 -16 -16 -68 -26 -58 -10 2 3
-5 23 -16 44 -10 21 -15 44 -11 50 3 6 7 36 8 66 2 40 0 49 -7 33 -8 -21 -54
-42 -66 -30 -7 7 24 57 35 57 4 0 6 17 4 38 l-4 38 62 -4 c59 -4 62 -3 56 16
-6 17 0 21 44 32 28 7 64 10 81 8 17 -3 34 1 41 9 8 10 14 10 24 2 10 -8 19
-7 36 5 12 9 40 16 61 16 39 0 39 0 33 32 -8 43 -12 45 -49 25 -31 -16 -161
-21 -151 -6 2 3 -22 5 -54 4 -31 -2 -77 -1 -101 2 l-43 6 6 59 c7 71 10 78 41
78 14 0 29 8 35 19 13 25 13 44 0 36 -5 -3 -10 1 -10 9 0 9 -11 26 -25 38 -14
12 -25 27 -25 34 0 11 25 62 49 99 7 12 8 105 1 105 -3 0 -14 17 -24 38 -10
20 -22 45 -27 54 -5 10 -9 25 -9 34 0 35 -72 150 -108 174 -20 13 -47 32 -59
43 -12 11 -26 16 -32 13 -5 -4 -13 -1 -16 5 -4 5 -13 8 -21 5 -15 -6 -23 4
-29 33 -3 14 1 18 16 14 28 -8 25 25 -3 37 -16 6 -18 9 -7 9 26 1 40 26 41 73
0 24 5 49 10 55 6 7 7 20 4 30 -4 9 -2 19 3 22 5 3 11 15 13 26 3 20 52 60 85
68 37 9 100 7 148 -7z m-262 -508 c3 -10 13 -18 24 -18 10 0 25 -5 33 -10 10
-7 -5 -10 -53 -10 -38 0 -66 4 -63 8 2 4 1 14 -5 22 -6 10 -9 11 -9 3 0 -7 -9
-13 -20 -13 -25 0 -22 23 5 31 41 12 84 6 88 -13z m1490 -65 c12 -19 41 -16
62 7 10 11 28 19 41 18 18 -2 25 -10 30 -35 4 -19 2 -39 -5 -47 -6 -7 -8 -16
-4 -20 11 -11 -38 -46 -64 -46 -13 0 -23 5 -23 10 0 6 -27 10 -60 10 -47 0
-60 3 -60 15 0 8 -6 15 -14 15 -23 0 1 74 27 86 26 12 59 6 70 -13z m-1448 -3
c13 -6 2 -7 -30 -3 -27 3 -52 7 -54 9 -9 8 65 2 84 -6z m39 -78 c-18 -10 -23
-16 -15 -22 9 -5 5 -9 -11 -13 -34 -10 -58 -8 -58 3 0 6 7 10 15 10 8 0 21 13
30 30 14 27 17 28 41 18 l25 -12 -27 -14z m981 -52 c3 -5 1 -10 -4 -10 -6 0
-11 5 -11 10 0 6 2 10 4 10 3 0 8 -4 11 -10z m-1095 -164 c0 -3 -4 -8 -10 -11
-5 -3 -10 -1 -10 4 0 6 5 11 10 11 6 0 10 -2 10 -4z m-43 -22 c-3 -3 -12 -4
-19 -1 -8 3 -5 6 6 6 11 1 17 -2 13 -5z m148 -34 c11 9 12 -1 8 -52 -6 -62
-25 -118 -42 -118 -4 0 -13 -11 -19 -25 -6 -14 -17 -25 -23 -25 -6 0 -24 -9
-40 -21 -29 -20 -31 -21 -50 -3 -15 13 -18 25 -13 44 4 14 8 39 10 55 7 67 17
95 35 100 12 4 19 16 19 30 0 28 28 46 58 38 15 -3 22 -1 23 8 0 8 5 1 11 -14
8 -21 13 -25 23 -17z m323 -326 c2 -1 -8 -1 -21 0 -15 0 -23 6 -20 14 4 10 9
10 22 0 9 -7 17 -13 19 -14z m-393 -35 c-3 -17 -2 -28 3 -25 4 2 8 -11 8 -30
0 -48 -24 -45 -41 6 -1 3 -5 13 -9 22 -9 21 10 58 29 58 12 0 14 -8 10 -31z
m1255 -1489 c0 -5 -5 -10 -11 -10 -5 0 -7 5 -4 10 3 6 8 10 11 10 2 0 4 -4 4
-10z m-212 -285 c-28 -14 -35 -11 -19 9 7 8 19 12 27 9 12 -4 10 -8 -8 -18z
m672 -14 c0 -5 -9 -11 -19 -14 -14 -3 -18 -1 -14 9 6 15 33 19 33 5z m-53 -27
c-3 -3 -12 -4 -19 -1 -8 3 -5 6 6 6 11 1 17 -2 13 -5z"/>
<path d="M1985 2813 c-25 -6 -43 -21 -56 -45 -10 -18 -6 -19 73 -13 89 7 148
21 148 36 0 5 -11 9 -25 9 -14 0 -25 5 -25 10 0 10 -78 12 -115 3z m105 -23
c0 -5 -5 -10 -11 -10 -5 0 -7 5 -4 10 3 6 8 10 11 10 2 0 4 -4 4 -10z"/>
<path d="M2422 2768 c-2 -38 1 -48 14 -48 12 0 14 3 6 13 -6 6 -12 28 -15 47
-3 30 -4 28 -5 -12z"/>
<path d="M2013 2675 c-60 -16 -100 -45 -80 -57 9 -6 9 -10 -1 -20 -18 -18 -15
-28 12 -28 13 0 27 -6 29 -12 4 -10 8 -9 16 2 6 9 7 16 1 18 -17 6 -11 18 14
30 22 10 25 8 30 -14 6 -22 39 -44 68 -44 5 0 23 14 40 32 26 28 29 30 34 12
7 -28 35 -43 62 -33 29 11 28 28 -5 57 l-28 24 25 -6 c24 -7 24 -6 -5 18 -20
17 -42 26 -66 26 -20 0 -49 2 -65 5 -16 2 -52 -2 -81 -10z m171 -20 c31 -24
14 -25 -49 -5 l-60 19 45 0 c25 0 54 -6 64 -14z"/>
<path d="M1990 2546 c-6 -8 -18 -12 -26 -9 -20 8 -7 -23 14 -33 9 -4 33 -8 52
-9 19 -1 43 -5 53 -9 9 -5 17 -4 17 1 0 5 -16 15 -35 23 -35 14 -46 29 -22 31
6 0 3 4 -8 9 -28 12 -31 12 -45 -4z"/>
<path d="M2575 2264 c-20 -16 -25 -24 -14 -24 16 0 56 37 48 44 -2 2 -17 -7
-34 -20z"/>
<path d="M1815 2225 c-5 -2 -23 -6 -38 -9 -32 -7 -26 -29 6 -25 12 2 32 -2 44
-9 27 -15 38 -1 23 28 -11 20 -15 22 -35 15z"/>
<path d="M1880 2069 c0 -5 5 -7 10 -4 6 3 10 8 10 11 0 2 -4 4 -10 4 -5 0 -10
-5 -10 -11z"/>
<path d="M2340 1840 c0 -5 5 -10 11 -10 5 0 7 5 4 10 -3 6 -8 10 -11 10 -2 0
-4 -4 -4 -10z"/>
<path d="M1676 1813 c-3 -4 -6 -17 -6 -30 0 -19 5 -23 30 -23 19 0 30 5 30 14
0 16 -45 48 -54 39z"/>
<path d="M1960 1665 c0 -8 5 -15 10 -15 6 0 10 7 10 15 0 8 -4 15 -10 15 -5 0
-10 -7 -10 -15z"/>
<path d="M1823 1038 c-41 -28 -55 -48 -33 -48 5 0 14 9 20 19 5 11 19 22 29
26 11 3 22 12 25 20 3 8 4 15 3 14 -1 0 -21 -14 -44 -31z"/>
<path d="M1516 833 c-6 -14 -5 -15 5 -6 7 7 10 15 7 18 -3 3 -9 -2 -12 -12z"/>
</g>
</svg>
